<svg width="74" height="66" viewBox="0 0 74 66" fill="none" xmlns="http://www.w3.org/2000/svg">
<path d="M71.3556 0.152453C71.2521 0.258881 71.183 0.368186 71.1198 0.517761L71.0335 0.733494L71.0709 1.46699C71.16 3.15546 71.1514 7.0703 71.0536 8.39922C71.0133 8.97738 70.9299 9.80867 70.9184 9.79717C70.9098 9.79142 70.8753 9.32256 70.835 8.75302C70.5531 4.55629 70.2539 1.69135 70.0756 1.51301C70.0353 1.47274 66.0917 4.05003 64.9268 4.88133C64.2508 5.36457 63.9517 5.60331 63.4425 6.0693C62.4473 6.98113 61.826 7.83831 61.5326 8.70124C61.429 9.00327 61.0925 10.8931 61.0464 11.4195C61.0119 11.8107 60.9918 12.3256 60.9573 13.7638C60.94 14.4081 60.8911 15.3947 60.8278 16.2663C60.7732 17.0573 60.6955 18.1647 60.6553 18.7257C60.615 19.2866 60.5632 20.0057 60.5402 20.3221C60.5143 20.6385 60.4568 22.396 60.4079 24.234C60.3619 26.0692 60.3043 27.9907 60.2813 28.5056C60.195 30.5335 60.1087 35.1041 60.1346 36.1857C60.1634 37.3132 60.2382 39.5166 60.2669 40.1408C60.2957 40.8024 60.3475 41.0469 60.5229 41.4064C60.848 42.0622 61.4549 42.4563 62.338 42.5829C62.7522 42.6433 64.8146 42.6979 65.7466 42.6749C66.9489 42.6433 67.8521 42.58 68.2634 42.4966C69.8081 42.1802 70.7487 40.9577 71.0536 38.8608C71.1111 38.4667 71.1341 38.1071 71.2118 36.574C71.2837 35.1386 71.347 34.2872 71.5857 31.5546C71.8993 27.9274 71.9942 24.585 72.0977 13.5912C72.1466 8.35032 72.1466 8.43373 71.9597 5.91109C71.8187 4.02415 71.6289 0.747877 71.6289 0.209982C71.6289 0.0143835 71.626 1.32878e-06 71.5656 1.32878e-06C71.5282 1.32878e-06 71.4448 0.0604066 71.3556 0.152453Z" fill="url(#paint0_linear)"/>
<path d="M35.0347 0.40385C34.7816 0.435491 34.5658 0.504525 33.7087 0.823811C30.3835 2.06068 25.7121 4.13747 23.5836 5.32832C20.4252 7.09158 17.4826 9.3237 13.8727 12.6891C13.2082 13.3076 12.958 13.5751 12.2504 14.4093C10.9732 15.9194 8.42472 19.1151 7.23675 20.6972C6.00563 22.3396 4.87231 24.0108 3.98924 25.4979C3.13494 26.9362 2.30365 28.5959 1.73699 29.9996C0.853917 32.1857 0.232605 34.6278 0.0370072 36.6586C-0.0262745 37.3173 -0.00613941 38.4966 0.0801539 39.0661C0.281505 40.4324 0.710095 41.583 1.46372 42.7854C2.12243 43.841 2.70059 44.6579 3.19247 45.2332C3.52326 45.6187 5.13407 47.2496 5.66333 47.7329C6.8887 48.8547 7.71424 49.3839 9.05754 49.9132C11.5255 50.8883 13.9993 51.0638 16.7837 50.4655C17.8221 50.2411 19.2286 49.7809 20.2469 49.3293C20.4224 49.2545 20.5633 49.197 20.5633 49.2056C20.5633 49.2114 20.4051 49.4731 20.2095 49.7838C18.2823 52.8587 15.9466 57.1992 13.5534 62.1525C13.214 62.8543 12.6531 63.9991 12.305 64.6952C11.957 65.3913 11.6809 65.9695 11.6895 65.981C11.7326 66.0213 11.9627 65.9896 12.1094 65.9206C12.1957 65.8803 12.3338 65.7941 12.4172 65.7279C12.5553 65.6186 12.5898 65.5611 12.8717 64.9973C13.6167 63.5073 14.6867 61.557 15.5813 60.0498L15.8028 59.6816L15.9035 59.6989C15.9581 59.7075 16.0502 59.7305 16.1106 59.7449L16.2141 59.7708L15.9552 60.3259C14.7702 62.8543 13.8612 65.026 13.8612 65.3396C13.8612 65.4115 13.8641 65.4115 14.028 65.3942C14.1172 65.3856 14.7155 65.3453 15.3569 65.3079C18.6476 65.1037 20.3821 64.957 21.3831 64.7902C22.502 64.6032 23.7245 64.2235 24.4177 63.8467C24.8924 63.5907 25.4101 63.1937 25.6604 62.8975C25.9912 62.5092 26.9663 61.2982 27.0612 61.1543C27.2395 60.8926 27.5243 60.3633 28.0421 59.3393C28.6806 58.0737 28.7583 57.9442 29.2157 57.3689C29.6989 56.7563 31.7038 54.0898 32.5437 52.9392C34.3587 50.4482 34.5889 50.1462 36.1536 48.1787C38.38 45.3771 38.636 45.0204 40.5028 42.0893C42.0935 39.5896 43.8941 36.6614 46.8252 31.8117C47.2884 31.0437 47.9499 29.9881 48.2922 29.4674C48.9711 28.4348 49.1782 28.104 49.4227 27.6409C49.9836 26.5824 50.2568 25.4951 50.2108 24.5085C50.1763 23.7893 50.0325 23.5276 49.4054 23.0558C48.1714 22.1296 46.808 21.4652 44.7398 20.7806C43.9143 20.5044 41.9497 19.9119 41.7771 19.8831C41.6563 19.863 41.291 19.9435 41.0292 20.0471C40.7703 20.1506 39.4328 20.7806 36.6283 22.1181C33.4181 23.6513 31.5628 24.5257 21.6995 29.151C19.01 30.4109 16.8009 31.4522 16.7894 31.4637C16.7549 31.4953 17.0972 32.1742 17.2985 32.4733C17.73 33.1205 18.2708 33.6009 18.8576 33.8569C19.6083 34.1848 20.3217 34.2797 21.6765 34.228C24.4264 34.1273 26.2472 33.8914 28.0104 33.4082L28.6001 33.2471L28.9165 33.2816C29.092 33.3017 29.2559 33.3248 29.2789 33.3334C29.3106 33.3449 29.1783 33.4887 28.8331 33.8253C28.3815 34.2653 28.2405 34.3775 26.9778 35.3095C21.6564 39.2358 19.8068 40.5561 18.3197 41.4823C15.8086 43.05 13.562 43.9877 11.3529 44.3933C10.3634 44.5774 9.489 44.6436 9.20999 44.5601C8.81304 44.4422 8.72674 44.1172 8.91084 43.4613C9.10931 42.7652 9.49763 41.7959 10.0211 40.7C10.4095 39.8859 10.6626 39.3365 11.5255 37.4352C13.6282 32.8012 14.6896 30.9603 16.5737 28.7052C17.3273 27.802 17.9141 27.1634 19.7435 25.2534C20.9401 24.0051 21.1674 23.7635 21.7254 23.1393C22.3352 22.4547 22.9277 21.8535 23.6123 21.2149C25.7898 19.1957 29.8801 15.7008 31.9684 14.0785C32.3337 13.7966 33.211 13.0976 33.9215 12.5281C36.2744 10.6325 37.0367 10.0399 38.055 9.30932C38.6676 8.86922 38.9064 8.65061 39.1883 8.27668C39.5363 7.81645 39.7866 7.24979 39.9275 6.60259C39.9851 6.34658 39.9937 6.23153 39.9937 5.62172C39.9908 4.98315 39.9851 4.90548 39.916 4.57182C39.7291 3.6945 39.3724 2.93512 38.8776 2.35408C38.6964 2.14122 38.1959 1.68962 37.7903 1.37321C36.8123 0.61383 35.8976 0.291669 35.0347 0.40385Z" fill="url(#paint1_linear)"/>
<path d="M69.0343 44.4554C68.2231 44.5705 67.389 44.9272 66.4513 45.5629C65.4301 46.259 64.9613 46.6875 64.0782 47.7518C63.6323 48.2869 63.3102 48.7154 63.0225 49.1613C62.5882 49.8286 62.0215 50.798 61.7051 51.4078C61.4319 51.9399 61.3772 52.0291 61.3369 52.009C61.311 51.9946 61.173 51.8824 61.0292 51.7587C60.0282 50.8987 57.5602 48.9801 56.8641 48.5227C56.68 48.399 56.5246 48.3271 56.3032 48.2552C55.5898 48.0251 55.0835 48.0165 54.4565 48.2264C54.0854 48.3501 53.8438 48.4767 53.3059 48.8363C52.6098 49.3022 52.256 49.7049 52.0777 50.2371C52.0058 50.4442 52 50.5075 52 50.8843C52 51.2237 52.0115 51.3503 52.0633 51.5602C52.1496 51.9054 52.325 52.3311 52.5178 52.6821C52.6645 52.9438 52.8543 53.2372 54.0135 54.9832C54.724 56.059 55.1267 56.5538 56.0529 57.4972C56.7116 58.1674 57.307 58.7255 58.1815 59.4992C58.7884 60.0343 58.9552 60.1925 60.3733 61.5731C62.6946 63.834 63.5806 64.5819 63.9315 64.5819C64.1702 64.5819 64.5816 64.2655 65.3726 63.4716C66.0112 62.8302 66.6871 62.0765 67.1675 61.4696C67.5875 60.9403 67.622 60.9001 68.5511 59.8732C70.8033 57.385 71.4246 56.5796 72.0833 55.2939C72.6212 54.2411 72.9923 53.2228 73.3231 51.9054C73.5848 50.8613 73.6567 50.2486 73.6337 49.2936C73.6136 48.3818 73.4928 47.6655 73.2195 46.8199C72.8859 45.7786 72.3278 45.0739 71.5253 44.674C71.0622 44.4439 70.9932 44.4324 70.1043 44.4238C69.5521 44.418 69.2299 44.4267 69.0343 44.4554ZM68.7495 48.0797C68.9624 48.1891 69.2702 48.9599 69.3967 49.7049C69.5463 50.5823 69.4456 51.5344 69.1005 52.5382C68.8905 53.148 68.4849 54.1462 68.1944 54.7646C67.5529 56.1309 66.736 57.3966 65.8041 58.458C65.5883 58.7053 65.3007 58.9268 65.2345 58.9009C65.2144 58.8923 65.1569 58.8175 65.108 58.7312C65.0188 58.5874 65.0073 58.5356 64.9411 58.0035C64.6247 55.4434 64.7254 53.9966 65.3409 52.2995C66.0428 50.3665 66.7993 49.239 67.9902 48.353C68.413 48.0366 68.5654 47.9819 68.7495 48.0797Z" fill="url(#paint2_linear)"/>
<defs>
<linearGradient id="paint0_linear" x1="66.1276" y1="42.6803" x2="66.1276" y2="0" gradientUnits="userSpaceOnUse">
<stop stop-color="#F8A347"/>
<stop offset="1" stop-color="#E65232"/>
</linearGradient>
<linearGradient id="paint1_linear" x1="25.1079" y1="65.9988" x2="25.1079" y2="0.382126" gradientUnits="userSpaceOnUse">
<stop stop-color="#F8A347"/>
<stop offset="1" stop-color="#E65232"/>
</linearGradient>
<linearGradient id="paint2_linear" x1="62.8189" y1="64.5819" x2="62.8189" y2="44.4221" gradientUnits="userSpaceOnUse">
<stop stop-color="#F8A347"/>
<stop offset="1" stop-color="#E65232"/>
</linearGradient>
</defs>
</svg>
