<svg width="227" height="209" viewBox="0 0 227 209" fill="none" xmlns="http://www.w3.org/2000/svg">
<path d="M219.304 11.3911C219.004 26.4911 218.304 25.5911 216.804 8.09112C216.404 4.39112 215.704 1.39112 215.204 1.39112C213.504 1.39112 196.904 12.9911 193.604 16.4911C191.904 18.3911 189.904 21.1911 189.304 22.8911C186.604 29.8911 183.404 117.991 185.504 125.491C186.604 129.191 190.204 130.391 200.404 130.391C215.704 130.391 218.104 127.691 219.404 109.391C221.004 87.7911 222.404 31.8911 221.704 17.6911C220.804 -3.00888 219.604 -6.10888 219.304 11.3911Z" fill="url(#paint0_linear)"/>
<path d="M101.444 4.29111C79.2445 13.2911 71.5445 17.4911 58.0445 27.9911C46.0445 37.3911 41.5445 41.7911 31.7445 54.0911C12.3445 78.1911 3.34449 95.1911 0.544486 112.691C-1.45551 125.391 1.84449 133.691 13.9445 146.191C21.8445 154.391 29.7445 158.891 38.2445 159.891C43.9445 160.591 56.0445 158.991 61.3445 156.791C63.3445 155.991 64.5445 155.891 64.5445 156.491C64.5445 157.091 62.0445 161.891 59.0445 167.191C51.6445 179.991 37.3445 208.391 38.3445 208.391C38.7445 208.391 41.0445 204.491 43.4445 199.891C47.7445 191.691 50.0445 188.591 51.0445 189.591C51.3445 189.891 49.9445 193.491 48.0445 197.791C46.0445 201.991 44.6445 205.791 44.9445 206.191C45.5445 207.191 64.3445 205.891 70.5445 204.391C77.9445 202.591 82.4445 198.791 87.5445 189.791C92.0445 181.891 99.8445 170.991 115.044 151.391C122.644 141.591 129.944 130.491 144.044 107.391C147.244 102.191 150.844 96.2911 152.144 94.3911C159.244 83.4911 161.044 77.0911 158.044 74.0911C154.244 70.1911 137.944 63.0911 133.044 63.1911C131.944 63.1911 127.244 64.9911 122.544 67.1911C117.844 69.3911 110.044 72.9911 105.044 75.3911C69.6445 91.8911 55.0445 98.7911 54.7445 98.9911C53.5445 99.7911 56.2445 103.791 58.8445 105.491C62.7445 107.791 72.2445 107.991 84.0445 105.891C88.4445 105.091 92.4445 104.891 92.8445 105.291C93.6445 106.091 75.7445 119.891 62.0445 129.091C50.4445 136.891 38.9445 141.391 30.7445 141.391C27.2445 141.391 27.2445 141.391 27.8445 137.391C28.1445 135.191 32.6445 124.691 37.8445 114.091L47.3445 94.8911L61.3445 79.8911C75.3445 64.7911 86.1445 55.1911 110.044 36.4911C117.244 30.8911 123.844 25.0911 124.744 23.5911C126.944 20.2911 127.044 14.4911 125.144 9.89111C123.644 6.39111 115.744 0.39111 112.644 0.39111C111.744 0.39111 106.744 2.19111 101.444 4.29111Z" fill="url(#paint1_linear)"/>
<path d="M206.704 139.791C202.204 142.291 196.004 148.591 192.904 153.791C191.804 155.491 190.404 157.891 189.604 159.191L188.204 161.391L181.004 155.991C171.404 148.691 169.604 148.091 164.704 150.291C156.904 153.791 157.104 158.591 165.304 170.291C169.304 175.991 194.404 200.391 196.304 200.391C197.304 200.391 201.904 195.691 212.704 183.391C223.604 170.891 228.504 158.091 226.304 147.591C224.204 137.891 215.804 134.591 206.704 139.791ZM213.904 150.991C215.104 155.791 213.604 163.091 209.904 170.591C206.204 178.191 201.004 184.391 199.604 182.991C199.104 182.591 198.804 178.091 198.904 173.091C198.904 164.791 199.204 163.291 202.104 157.691C206.704 148.791 212.504 145.391 213.904 150.991Z" fill="url(#paint2_linear)"/>
<defs>
<linearGradient id="paint0_linear" x1="203.357" y1="130.391" x2="203.357" y2="-4.57764e-05" gradientUnits="userSpaceOnUse">
<stop stop-color="#F8A347"/>
<stop offset="1" stop-color="#E65232"/>
</linearGradient>
<linearGradient id="paint1_linear" x1="79.7179" y1="208.391" x2="79.7179" y2="0.391113" gradientUnits="userSpaceOnUse">
<stop stop-color="#F8A347"/>
<stop offset="1" stop-color="#E65232"/>
</linearGradient>
<linearGradient id="paint2_linear" x1="192.91" y1="200.391" x2="192.91" y2="137.341" gradientUnits="userSpaceOnUse">
<stop stop-color="#F8A347"/>
<stop offset="1" stop-color="#E65232"/>
</linearGradient>
</defs>
</svg>
