<svg width="100" height="79" viewBox="0 0 100 79" fill="none" xmlns="http://www.w3.org/2000/svg">
<path d="M46.7329 0.20961C43.3793 0.778519 33.7977 5.74898 26.372 10.7793C16.3712 17.5763 8.79572 24.5229 4.51394 30.8109C-1.53444 39.7337 -1.5045 47.6685 4.60377 53.5073C7.95733 56.7411 13.2272 58.6574 20.4434 59.3161C26.4618 59.885 33.3486 59.1365 38.4987 57.3399C39.3371 57.0704 42.002 56.3219 44.4872 55.6631C48.0503 54.7649 49.0684 54.5852 49.3379 54.8846C49.6373 55.184 49.3379 56.2919 47.9006 60.1844C46.9125 62.9092 45.625 66.2628 45.0262 67.6701C43.6787 70.8739 43.2895 72.2513 43.529 72.8501C44.3075 74.9162 51.4039 76.1139 57.0331 75.1557C60.1771 74.5868 61.4047 73.2693 62.2132 69.4666C62.9018 66.2927 64.6984 57.789 65.1475 55.5434C65.3871 54.3756 65.8063 52.4293 66.0757 51.2017C67.0339 46.7103 68.6208 39.0151 69.04 36.7694C69.5191 34.2542 69.3395 33.2063 68.3813 32.6673C67.2136 32.0385 43.8285 29.7329 42.2714 30.0922C39.9659 30.6312 39.397 35.0028 41.3432 37.2185C42.3912 38.4462 43.5889 38.9552 47.4814 40.0032C49.1283 40.4224 50.5955 40.8715 50.7152 40.9913C50.9548 41.2308 48.4695 41.9794 40.5947 44.0454C32.2108 46.2312 26.5516 47.2493 21.8507 47.399C19.9044 47.4589 19.4553 47.3691 18.8863 46.86C17.8384 45.9318 18.2276 44.5245 20.3236 41.5902C26.6115 32.7272 36.1931 26.589 52.422 21.0197L56.4642 19.6423L60.8059 19.6124C64.908 19.6124 65.2673 19.6722 67.1836 20.4807L69.2496 21.349L69.8784 20.7202C70.4773 20.1214 70.5072 19.7621 70.5072 14.1628C70.5372 9.16242 70.4174 7.72518 69.8485 4.94053C69.2796 2.09599 69.07 1.52708 68.2915 0.808464L67.3932 1.52588e-05L57.4224 0.0299606C51.9728 0.0598984 47.1521 0.149727 46.7329 0.20961Z" fill="url(#paint0_linear)"/>
<path d="M82.2147 2.06602C80.6877 2.45527 79.1307 3.3236 78.6516 4.04222C77.3042 6.07832 76.1963 25.9601 76.4358 42.8477C76.5257 49.1057 76.6155 50.3333 77.0646 50.9921C77.8731 52.2197 79.2504 52.4892 84.1311 52.3395C90.6286 52.1598 91.1676 51.7406 91.6466 46.6804C92.1257 41.4704 93.1138 16.2588 93.1438 8.50366C93.1438 4.13205 93.1138 3.98234 92.4251 3.3236C91.3173 2.27562 89.1913 1.79654 85.9875 1.82648C84.4005 1.85642 82.7238 1.94625 82.2147 2.06602Z" fill="url(#paint1_linear)"/>
<path d="M91.7964 53.8666C88.0536 54.8547 85.5983 56.5614 83.4125 59.7053C82.7837 60.6336 82.1249 61.3821 81.9453 61.3821C81.7656 61.3821 81.3764 60.7833 81.077 60.0647C79.5499 56.3817 74.3099 53.657 70.8965 54.7648C69.4593 55.2439 68.2915 56.6512 68.2915 57.9387C68.2915 59.3161 69.7587 63.3583 71.0163 65.4543C72.3038 67.6102 76.5856 71.9818 78.8912 73.4789L80.6278 74.6167L80.4182 76.2636C80.1787 78.2098 80.508 78.7488 81.9752 78.7488C83.8616 78.7488 85.6582 77.4613 87.1553 75.0659C88.6524 72.7004 92.7545 68.3887 96.0183 65.8136C98.6831 63.7176 99.7311 61.8013 99.9707 58.7172C100.12 56.2919 99.7012 54.7349 98.6233 53.8965C97.6352 53.118 94.7607 53.118 91.7964 53.8666Z" fill="url(#paint2_linear)"/>
<defs>
<linearGradient id="paint0_linear" x1="49.7046" y1="-2.54509" x2="54.3456" y2="75.4551" gradientUnits="userSpaceOnUse">
<stop offset="0.000334871" stop-color="#E65232"/>
<stop offset="1" stop-color="#F8A347"/>
</linearGradient>
<linearGradient id="paint1_linear" x1="84.7734" y1="52.377" x2="84.7734" y2="1.82516" gradientUnits="userSpaceOnUse">
<stop offset="0.00520833" stop-color="#F8A347"/>
<stop offset="1" stop-color="#E65232"/>
</linearGradient>
<linearGradient id="paint2_linear" x1="84.1458" y1="78.7488" x2="84.1458" y2="53.3088" gradientUnits="userSpaceOnUse">
<stop stop-color="#F8A347"/>
<stop offset="1" stop-color="#E65232"/>
</linearGradient>
</defs>
</svg>
