<svg width="255" height="55" viewBox="0 0 255 55" fill="none" xmlns="http://www.w3.org/2000/svg">
<path d="M39.527 19.3886L38.5277 19.1294C38.3152 14.502 36.4128 10.1819 33.1156 6.88459C30.5636 4.33265 27.3561 2.59228 23.8397 1.85164C23.4983 1.77971 23.1633 1.99812 23.0913 2.33959C23.0194 2.68097 23.2379 3.01604 23.5793 3.08798C26.8553 3.77799 29.8439 5.39977 32.2221 7.77802C35.2013 10.7573 36.9583 14.6326 37.2429 18.7962L34.9629 18.2048C34.6904 15.9207 33.8888 13.7081 32.6316 11.78C32.4411 11.4877 32.0497 11.4052 31.7574 11.5958C31.4651 11.7864 31.3827 12.1777 31.5732 12.47C32.634 14.0968 33.3398 15.9449 33.6397 17.8616L28.0564 16.4134L31.3098 9.53145C31.4238 9.29021 31.374 9.00324 31.1852 8.81464C30.9966 8.62597 30.7096 8.57627 30.4684 8.6904L23.5874 11.9468L22.1385 6.3605C24.028 6.65624 25.8525 7.34676 27.4618 8.38263C27.5676 8.45068 27.686 8.4832 27.8032 8.4832C28.0108 8.4832 28.2142 8.38086 28.3349 8.19328C28.5238 7.8999 28.4389 7.50899 28.1456 7.32014C26.2362 6.09113 24.0494 5.30619 21.7952 5.03707L20.6116 0.473123C20.5394 0.194573 20.2879 0 20 0C19.7122 0 19.4608 0.194573 19.3885 0.473123L18.2046 5.03766C15.0094 5.41712 12.1241 6.79471 9.86584 8.84842L9.53136 8.69032C9.29004 8.57627 9.00324 8.62614 8.81456 8.81481C8.62588 9.00357 8.57619 9.29046 8.69032 9.5317L8.84825 9.86534C6.79277 12.1262 5.4167 15.0138 5.03766 18.2047L2.76563 18.7939C3.04409 14.7779 4.71455 10.8413 7.77794 7.77794C10.1307 5.42512 13.085 3.81076 16.3212 3.1092C16.6622 3.03533 16.8786 2.69892 16.8048 2.35803C16.7309 2.01707 16.3945 1.80034 16.0536 1.87447C12.5798 2.62749 9.40923 4.35994 6.88459 6.88459C3.5873 10.1818 1.68486 14.502 1.47252 19.1294L0.473207 19.3885C0.194573 19.4608 0 19.7122 0 20C0 20.2879 0.194573 20.5393 0.473123 20.6116L1.47243 20.8707C1.68486 25.4981 3.5873 29.8182 6.8845 33.1155C10.1818 36.4128 14.5019 38.3152 19.1293 38.5276L19.3884 39.5269C19.4607 39.8055 19.7121 40 20 40C20.2878 40 20.5392 39.8054 20.6115 39.5269L20.8706 38.5276C25.4981 38.3151 29.8182 36.4127 33.1155 33.1155C36.4127 29.8182 38.3151 25.4981 38.5276 20.8706L39.5269 20.6115C39.8055 20.5392 40 20.2878 40 20C40 19.7121 39.8056 19.4608 39.527 19.3886ZM29.4123 29.4129L23.9096 26.8115L24.1278 25.9703L24.507 24.5083L24.508 24.5081L29.4117 29.4118L29.4123 29.4129ZM16.7133 24.1802L20 20.8935V36.8522L16.7133 24.1802ZM10.5872 29.4123L13.1886 23.9096L14.3411 24.2085L15.4918 24.507L15.492 24.508L10.5883 29.4117L10.5872 29.4123ZM15.7916 14.3412L15.4931 15.4919L15.4921 15.4921L10.5883 10.5883L10.5878 10.5872L16.0905 13.1886L15.7916 14.3412ZM11.9437 23.5867L9.43189 28.9C7.84448 27.0148 6.75462 24.6951 6.3589 22.1382L11.9437 23.5867ZM16.4126 28.0532L17.8619 33.6412C15.3047 33.2454 12.9848 32.1554 11.0995 30.5677L16.4126 28.0532ZM23.5867 28.0564L28.9001 30.5682C27.0148 32.1557 24.6951 33.2455 22.1382 33.6412L23.5867 28.0564ZM28.0533 23.5875L33.6413 22.1382C33.2456 24.6954 32.1555 27.0153 30.5679 28.9007L28.0533 23.5875ZM24.1803 23.2868L20.8936 20H36.8522L24.1803 23.2868ZM26.8116 16.0906L25.2438 15.6839L24.5083 15.4931L24.5081 15.4921L29.4119 10.5883L29.413 10.5878L26.8116 16.0906ZM23.2869 15.8199L20.0001 19.1067V3.14795L23.2869 15.8199ZM17.8618 6.35966L16.4134 11.9437L11.1106 9.43686C12.9955 7.84886 15.3121 6.75588 17.8618 6.35966ZM9.43744 11.1101L11.9469 16.4127L6.35907 17.8619C6.75504 15.315 7.84793 12.997 9.43744 11.1101ZM15.8199 16.7133L19.1067 20H3.14795L15.8199 16.7133ZM7.77794 32.2221C4.71455 29.1588 3.04409 25.2222 2.76563 21.2061L5.03783 21.7955C5.4076 24.8963 6.74434 27.8185 8.84842 30.1342L8.69032 30.4686C8.57627 30.7099 8.62605 30.9968 8.81481 31.1854C8.93594 31.3066 9.09757 31.3704 9.26157 31.3704C9.35305 31.3704 9.44528 31.3505 9.5317 31.3097L9.86576 31.1516C12.1815 33.2557 15.1037 34.5925 18.2046 34.9623L18.7939 37.2345C14.778 36.9561 10.8413 35.2855 7.77794 32.2221ZM32.2221 32.2221C29.1588 35.2855 25.2222 36.956 21.2062 37.2345L21.7956 34.9623C24.8964 34.5925 27.8186 33.2557 30.1343 31.1517L30.4688 31.3098C30.5551 31.3505 30.6472 31.3704 30.7386 31.3704C30.9027 31.3704 31.0644 31.3065 31.1856 31.1853C31.3742 30.9965 31.424 30.7096 31.3098 30.4684L31.1517 30.1342C33.2559 27.8185 34.5926 24.8963 34.9624 21.7955L37.243 21.2039C36.9584 25.3675 35.2014 29.2429 32.2221 32.2221Z" fill="#545454"/>
<path d="M56.6 27.328V10.304C56.6 10.1547 57.816 9.632 60.248 8.736C62.68 7.81867 64.0773 7.36 64.44 7.36C64.8027 7.36 65.3467 7.79733 66.072 8.672C66.8187 9.54667 67.192 10.336 67.192 11.04V29.024C67.192 29.1947 66.328 29.6213 64.6 30.304C65.944 33.1627 67.4053 34.592 68.984 34.592V35.52C67.0853 36.8 65.8267 37.44 65.208 37.44C64.3547 37.44 63.0747 35.456 61.368 31.488C60.408 31.8293 59.7787 32 59.48 32C58.904 32 58.2747 31.5413 57.592 30.624C56.9307 29.7067 56.6 28.608 56.6 27.328ZM62.072 29.056C62.4773 29.056 62.8933 28.8853 63.32 28.544V12.704C63.32 11.1253 62.776 10.336 61.688 10.336C61.2613 10.336 60.8453 10.496 60.44 10.816V26.688C60.44 28.2667 60.984 29.056 62.072 29.056ZM79.0212 27.008C79.0212 27.5627 79.1812 28.0213 79.5012 28.384C79.8426 28.7253 80.2159 28.896 80.6212 28.896C81.0266 28.896 81.4532 28.736 81.9012 28.416V18.464C81.9012 17.1627 81.4639 16.4267 80.5892 16.256V15.552L83.8212 13.728C84.2906 13.92 84.7279 14.24 85.1333 14.688C85.5386 15.1147 85.7413 15.52 85.7413 15.904V26.752C85.7413 27.456 85.8906 28.064 86.1892 28.576C86.4879 29.088 86.8612 29.344 87.3092 29.344V30.048C87.1599 30.0693 85.9972 30.72 83.8212 32C83.3306 31.7867 82.8826 31.4773 82.4773 31.072C82.0932 30.6453 81.9012 30.24 81.9012 29.856L77.9012 32C77.8372 31.9573 77.7412 31.904 77.6132 31.84C77.4852 31.7547 77.2612 31.5947 76.9412 31.36C76.6426 31.104 76.3759 30.8373 76.1412 30.56C75.5012 29.856 75.1812 29.056 75.1812 28.16V18.464C75.1812 17.2907 74.6586 16.5973 73.6132 16.384V15.68L77.1012 13.728C77.5706 13.92 78.0079 14.24 78.4132 14.688C78.8186 15.1147 79.0212 15.52 79.0212 15.904V27.008ZM101.571 13.76C101.678 13.76 101.945 13.9307 102.371 14.272C102.798 14.592 103.225 15.0507 103.651 15.648C104.078 16.224 104.291 16.7893 104.291 17.344V22.72C104.291 23.104 103.726 23.5733 102.595 24.128C101.465 24.6827 100.366 25.1413 99.2992 25.504C98.2539 25.8453 97.6886 26.016 97.6032 26.016C97.6032 27.6587 98.3179 28.672 99.7472 29.056C100.451 29.2267 101.294 29.312 102.275 29.312V30.24C98.7766 31.4133 96.9099 32 96.6752 32C96.0352 32 95.3846 31.552 94.7232 30.656C94.0619 29.7387 93.7312 28.672 93.7312 27.456V16.704C93.7312 16.5547 94.9472 16.032 97.3792 15.136C99.8112 14.2187 101.209 13.76 101.571 13.76ZM100.451 18.848C100.451 18.2507 100.313 17.7493 100.035 17.344C99.7579 16.9173 99.4059 16.704 98.9792 16.704C98.5526 16.704 98.0832 16.864 97.5712 17.184V24.576C99.4912 24.0427 100.451 22.8907 100.451 21.12V18.848ZM113.597 24.992C113.064 24.992 112.605 24.5867 112.221 23.776C111.837 22.9653 111.645 21.9733 111.645 20.8V17.344C111.645 16.9387 112.765 16.2453 115.005 15.264C117.245 14.2613 118.536 13.76 118.877 13.76C119.069 13.76 119.24 13.8773 119.389 14.112C119.538 14.3253 119.656 14.5067 119.741 14.656C119.826 14.784 119.954 15.0187 120.125 15.36C120.317 15.68 120.477 15.9467 120.605 16.16C120.882 16.672 121.234 16.928 121.661 16.928V17.568C121.32 17.7173 120.872 17.9413 120.317 18.24C118.952 18.9867 118.216 19.36 118.109 19.36C117.789 19.36 117.437 18.8373 117.053 17.792C116.69 16.7467 116.36 16.224 116.061 16.224C115.677 16.224 115.485 16.544 115.485 17.184V21.12C115.485 21.9733 115.677 22.4 116.061 22.4C116.146 22.4 116.808 22.1227 118.045 21.568C119.282 21.0133 120.029 20.736 120.285 20.736C120.797 20.736 121.245 21.152 121.629 21.984C122.034 22.7947 122.237 23.84 122.237 25.12V28.736C122.237 29.1413 121.01 29.8453 118.557 30.848C116.125 31.8293 114.728 32.32 114.365 32.32C114.216 32.32 114.066 32.192 113.917 31.936C113.789 31.6587 113.597 31.2427 113.341 30.688C113.106 30.1333 112.872 29.664 112.637 29.28C112.36 28.768 112.008 28.512 111.581 28.512V27.872C111.922 27.7227 112.381 27.4987 112.957 27.2C114.301 26.4533 115.026 26.08 115.133 26.08C115.453 26.08 115.848 26.7093 116.317 27.968C116.808 29.2267 117.202 29.856 117.501 29.856C117.714 29.856 117.917 29.7707 118.109 29.6C118.301 29.4293 118.397 29.1947 118.397 28.896V24.896C118.397 23.936 118.13 23.456 117.597 23.456C117.426 23.456 116.754 23.712 115.581 24.224C114.408 24.736 113.746 24.992 113.597 24.992ZM133.734 10.432V14.24H135.366L135.046 15.808H133.734V27.264C133.734 28.5653 134.171 29.3013 135.046 29.472V30.176L131.814 32C131.344 31.808 130.907 31.4987 130.502 31.072C130.096 30.624 129.894 30.208 129.894 29.824V15.84H128.582L128.902 14.496C129.542 14.496 130.31 14.0693 131.206 13.216C132.123 12.3413 132.667 11.4133 132.838 10.432H133.734Z" fill="#376CF6"/>
<path d="M152.619 28.736V12.576C152.619 11.872 152.469 11.264 152.171 10.752C151.872 10.24 151.499 9.984 151.051 9.984V9.28C151.2 9.25867 152.363 8.608 154.539 7.328C154.688 7.37067 154.869 7.43467 155.083 7.52C155.296 7.584 155.573 7.78667 155.915 8.128C156.277 8.46933 156.459 8.864 156.459 9.312C156.587 9.248 156.949 9.04533 157.547 8.704C159.125 7.808 160.096 7.36 160.459 7.36C160.843 7.36 161.259 7.552 161.707 7.936C162.176 8.32 162.528 8.77867 162.763 9.312C162.805 9.29067 163.243 9.06667 164.075 8.64C165.739 7.78667 166.741 7.36 167.083 7.36C167.765 7.36 168.405 7.808 169.003 8.704C169.6 9.6 169.899 10.4213 169.899 11.168V27.264C169.899 28.4373 170.421 29.1307 171.467 29.344V30.048L167.979 32C167.509 31.808 167.072 31.4987 166.667 31.072C166.261 30.624 166.059 30.208 166.059 29.824V14.144C166.059 12.864 165.845 11.9787 165.419 11.488C165.013 10.976 164.267 10.6987 163.179 10.656V27.264C163.179 28.4373 163.701 29.1307 164.747 29.344V30.048L161.259 32C160.789 31.808 160.352 31.4987 159.947 31.072C159.541 30.624 159.339 30.208 159.339 29.824V14.144C159.339 12.8 159.136 11.8827 158.731 11.392C158.347 10.9013 157.589 10.656 156.459 10.656V27.072C156.459 27.8613 156.544 28.4267 156.715 28.768C156.885 29.1093 157.237 29.28 157.771 29.28V30.272L151.211 33.024L150.699 32C151.168 32 151.616 31.7227 152.043 31.168C152.427 30.6347 152.619 29.824 152.619 28.736ZM187.807 17.984V27.04C187.807 27.8293 187.935 28.384 188.191 28.704C188.447 29.0027 188.842 29.216 189.375 29.344V30.048L185.887 32C185.418 31.808 184.981 31.4987 184.575 31.072C184.17 30.624 183.967 30.2187 183.967 29.856L179.967 32C179.903 31.9573 179.807 31.904 179.679 31.84C179.551 31.7547 179.327 31.5947 179.007 31.36C178.709 31.104 178.442 30.8373 178.207 30.56C177.567 29.856 177.247 29.056 177.247 28.16V22.912C177.247 22.5707 177.802 22.1333 178.911 21.6C180.021 21.0667 181.13 20.6293 182.239 20.288L183.935 19.744C183.935 18.528 183.615 17.6853 182.975 17.216C182.335 16.7253 181.098 16.48 179.263 16.48V15.52C182.57 14.3467 184.426 13.76 184.831 13.76C185.535 13.76 186.207 14.2187 186.847 15.136C187.487 16.0533 187.807 17.0027 187.807 17.984ZM181.087 27.008C181.087 27.5627 181.247 28.0213 181.567 28.384C181.909 28.7253 182.282 28.896 182.687 28.896C183.093 28.896 183.519 28.736 183.967 28.416V21.184C183.434 21.376 183.029 21.536 182.751 21.664C182.495 21.792 182.218 21.9947 181.919 22.272C181.365 22.784 181.087 23.6693 181.087 24.928V27.008ZM197.284 24.992C196.751 24.992 196.292 24.5867 195.908 23.776C195.524 22.9653 195.332 21.9733 195.332 20.8V17.344C195.332 16.9387 196.452 16.2453 198.692 15.264C200.932 14.2613 202.223 13.76 202.564 13.76C202.756 13.76 202.927 13.8773 203.076 14.112C203.226 14.3253 203.343 14.5067 203.428 14.656C203.514 14.784 203.642 15.0187 203.812 15.36C204.004 15.68 204.164 15.9467 204.292 16.16C204.57 16.672 204.922 16.928 205.348 16.928V17.568C205.007 17.7173 204.559 17.9413 204.004 18.24C202.639 18.9867 201.903 19.36 201.796 19.36C201.476 19.36 201.124 18.8373 200.74 17.792C200.378 16.7467 200.047 16.224 199.748 16.224C199.364 16.224 199.172 16.544 199.172 17.184V21.12C199.172 21.9733 199.364 22.4 199.748 22.4C199.834 22.4 200.495 22.1227 201.732 21.568C202.97 21.0133 203.716 20.736 203.972 20.736C204.484 20.736 204.932 21.152 205.316 21.984C205.722 22.7947 205.924 23.84 205.924 25.12V28.736C205.924 29.1413 204.698 29.8453 202.244 30.848C199.812 31.8293 198.415 32.32 198.052 32.32C197.903 32.32 197.754 32.192 197.604 31.936C197.476 31.6587 197.284 31.2427 197.028 30.688C196.794 30.1333 196.559 29.664 196.324 29.28C196.047 28.768 195.695 28.512 195.268 28.512V27.872C195.61 27.7227 196.068 27.4987 196.644 27.2C197.988 26.4533 198.714 26.08 198.82 26.08C199.14 26.08 199.535 26.7093 200.004 27.968C200.495 29.2267 200.89 29.856 201.188 29.856C201.402 29.856 201.604 29.7707 201.796 29.6C201.988 29.4293 202.084 29.1947 202.084 28.896V24.896C202.084 23.936 201.818 23.456 201.284 23.456C201.114 23.456 200.442 23.712 199.268 24.224C198.095 24.736 197.434 24.992 197.284 24.992ZM217.421 10.432V14.24H219.053L218.733 15.808H217.421V27.264C217.421 28.5653 217.859 29.3013 218.733 29.472V30.176L215.501 32C215.032 31.808 214.595 31.4987 214.189 31.072C213.784 30.624 213.581 30.208 213.581 29.824V15.84H212.269L212.589 14.496C213.229 14.496 213.997 14.0693 214.893 13.216C215.811 12.3413 216.355 11.4133 216.525 10.432H217.421ZM233.253 13.76C233.359 13.76 233.626 13.9307 234.053 14.272C234.479 14.592 234.906 15.0507 235.333 15.648C235.759 16.224 235.973 16.7893 235.973 17.344V22.72C235.973 23.104 235.407 23.5733 234.277 24.128C233.146 24.6827 232.047 25.1413 230.981 25.504C229.935 25.8453 229.37 26.016 229.285 26.016C229.285 27.6587 229.999 28.672 231.429 29.056C232.133 29.2267 232.975 29.312 233.957 29.312V30.24C230.458 31.4133 228.591 32 228.357 32C227.717 32 227.066 31.552 226.405 30.656C225.743 29.7387 225.413 28.672 225.413 27.456V16.704C225.413 16.5547 226.629 16.032 229.061 15.136C231.493 14.2187 232.89 13.76 233.253 13.76ZM232.133 18.848C232.133 18.2507 231.994 17.7493 231.717 17.344C231.439 16.9173 231.087 16.704 230.661 16.704C230.234 16.704 229.765 16.864 229.253 17.184V24.576C231.173 24.0427 232.133 22.8907 232.133 21.12V18.848ZM242.238 15.68L245.758 13.76C245.908 13.8027 246.078 13.8667 246.27 13.952C246.484 14.016 246.761 14.2187 247.102 14.56C247.465 14.9013 247.646 15.2853 247.646 15.712C247.753 15.6693 248.254 15.3387 249.15 14.72C250.068 14.08 250.654 13.76 250.91 13.76C251.593 13.76 252.233 14.208 252.83 15.104C253.428 16 253.726 16.8213 253.726 17.568V19.136L250.43 20.992L249.886 20.544C249.886 18.752 249.716 17.728 249.374 17.472C248.99 17.1947 248.414 17.056 247.646 17.056V27.264C247.646 28.5653 248.084 29.3013 248.958 29.472V30.176L245.726 32C245.257 31.808 244.82 31.4987 244.414 31.072C244.009 30.624 243.806 30.208 243.806 29.824V19.2C243.806 18.2613 243.636 17.5573 243.294 17.088C242.974 16.6187 242.622 16.384 242.238 16.384V15.68Z" fill="#545454"/>
<path d="M103.56 44.06C103.32 43.508 102.952 43.076 102.456 42.764C101.968 42.444 101.392 42.284 100.728 42.284C100.104 42.284 99.544 42.428 99.048 42.716C98.552 43.004 98.16 43.416 97.872 43.952C97.584 44.48 97.44 45.096 97.44 45.8C97.44 46.504 97.584 47.124 97.872 47.66C98.16 48.196 98.552 48.608 99.048 48.896C99.544 49.184 100.104 49.328 100.728 49.328C101.312 49.328 101.836 49.204 102.3 48.956C102.772 48.7 103.148 48.34 103.428 47.876C103.716 47.404 103.88 46.856 103.92 46.232H100.392V45.548H104.808V46.16C104.768 46.896 104.568 47.564 104.208 48.164C103.848 48.756 103.364 49.224 102.756 49.568C102.156 49.912 101.48 50.084 100.728 50.084C99.952 50.084 99.248 49.904 98.616 49.544C97.984 49.176 97.484 48.668 97.116 48.02C96.756 47.364 96.576 46.624 96.576 45.8C96.576 44.976 96.756 44.24 97.116 43.592C97.484 42.936 97.984 42.428 98.616 42.068C99.248 41.7 99.952 41.516 100.728 41.516C101.624 41.516 102.408 41.74 103.08 42.188C103.752 42.636 104.24 43.26 104.544 44.06H103.56ZM112.023 43.448V50H111.183V48.848C110.991 49.256 110.695 49.568 110.295 49.784C109.895 50 109.447 50.108 108.951 50.108C108.167 50.108 107.527 49.868 107.031 49.388C106.535 48.9 106.287 48.196 106.287 47.276V43.448H107.115V47.18C107.115 47.892 107.291 48.436 107.643 48.812C108.003 49.188 108.491 49.376 109.107 49.376C109.739 49.376 110.243 49.176 110.619 48.776C110.995 48.376 111.183 47.788 111.183 47.012V43.448H112.023ZM114.36 42.212C114.192 42.212 114.048 42.152 113.928 42.032C113.808 41.912 113.748 41.764 113.748 41.588C113.748 41.412 113.808 41.268 113.928 41.156C114.048 41.036 114.192 40.976 114.36 40.976C114.528 40.976 114.672 41.036 114.792 41.156C114.912 41.268 114.972 41.412 114.972 41.588C114.972 41.764 114.912 41.912 114.792 42.032C114.672 42.152 114.528 42.212 114.36 42.212ZM114.78 43.448V50H113.94V43.448H114.78ZM116.299 46.712C116.299 46.04 116.435 45.452 116.707 44.948C116.979 44.436 117.351 44.044 117.823 43.772C118.303 43.492 118.843 43.352 119.443 43.352C120.019 43.352 120.539 43.492 121.003 43.772C121.467 44.052 121.807 44.416 122.023 44.864V41.12H122.863V50H122.023V48.536C121.823 48.992 121.495 49.368 121.039 49.664C120.583 49.952 120.047 50.096 119.431 50.096C118.831 50.096 118.291 49.956 117.811 49.676C117.339 49.396 116.967 49 116.695 48.488C116.431 47.976 116.299 47.384 116.299 46.712ZM122.023 46.724C122.023 46.196 121.915 45.732 121.699 45.332C121.483 44.932 121.187 44.624 120.811 44.408C120.443 44.192 120.035 44.084 119.587 44.084C119.123 44.084 118.707 44.188 118.339 44.396C117.971 44.604 117.679 44.908 117.463 45.308C117.255 45.7 117.151 46.168 117.151 46.712C117.151 47.248 117.255 47.72 117.463 48.128C117.679 48.528 117.971 48.836 118.339 49.052C118.707 49.26 119.123 49.364 119.587 49.364C120.035 49.364 120.443 49.256 120.811 49.04C121.187 48.824 121.483 48.516 121.699 48.116C121.915 47.716 122.023 47.252 122.023 46.724ZM125.2 42.212C125.032 42.212 124.888 42.152 124.768 42.032C124.648 41.912 124.588 41.764 124.588 41.588C124.588 41.412 124.648 41.268 124.768 41.156C124.888 41.036 125.032 40.976 125.2 40.976C125.368 40.976 125.512 41.036 125.632 41.156C125.752 41.268 125.812 41.412 125.812 41.588C125.812 41.764 125.752 41.912 125.632 42.032C125.512 42.152 125.368 42.212 125.2 42.212ZM125.62 43.448V50H124.78V43.448H125.62ZM130.595 43.328C131.379 43.328 132.019 43.572 132.515 44.06C133.011 44.54 133.259 45.24 133.259 46.16V50H132.431V46.256C132.431 45.544 132.251 45 131.891 44.624C131.539 44.248 131.055 44.06 130.439 44.06C129.807 44.06 129.303 44.26 128.927 44.66C128.551 45.06 128.363 45.648 128.363 46.424V50H127.523V43.448H128.363V44.564C128.571 44.164 128.871 43.86 129.263 43.652C129.655 43.436 130.099 43.328 130.595 43.328ZM137.864 43.352C138.48 43.352 139.016 43.496 139.472 43.784C139.928 44.072 140.256 44.436 140.456 44.876V43.448H141.296V50.168C141.296 50.768 141.164 51.3 140.9 51.764C140.644 52.228 140.284 52.584 139.82 52.832C139.356 53.088 138.828 53.216 138.236 53.216C137.396 53.216 136.696 53.016 136.136 52.616C135.584 52.216 135.24 51.672 135.104 50.984H135.932C136.076 51.44 136.348 51.804 136.748 52.076C137.156 52.348 137.652 52.484 138.236 52.484C138.66 52.484 139.04 52.392 139.376 52.208C139.712 52.032 139.976 51.768 140.168 51.416C140.36 51.064 140.456 50.648 140.456 50.168V48.548C140.248 48.996 139.916 49.368 139.46 49.664C139.012 49.952 138.48 50.096 137.864 50.096C137.264 50.096 136.724 49.956 136.244 49.676C135.772 49.396 135.4 49 135.128 48.488C134.864 47.976 134.732 47.384 134.732 46.712C134.732 46.04 134.864 45.452 135.128 44.948C135.4 44.436 135.772 44.044 136.244 43.772C136.724 43.492 137.264 43.352 137.864 43.352ZM140.456 46.724C140.456 46.196 140.348 45.732 140.132 45.332C139.916 44.932 139.62 44.624 139.244 44.408C138.876 44.192 138.468 44.084 138.02 44.084C137.556 44.084 137.14 44.188 136.772 44.396C136.404 44.604 136.112 44.908 135.896 45.308C135.688 45.7 135.584 46.168 135.584 46.712C135.584 47.248 135.688 47.72 135.896 48.128C136.112 48.528 136.404 48.836 136.772 49.052C137.14 49.26 137.556 49.364 138.02 49.364C138.468 49.364 138.876 49.256 139.244 49.04C139.62 48.824 139.916 48.516 140.132 48.116C140.348 47.716 140.456 47.252 140.456 46.724ZM151.907 43.448L148.019 53.084H147.143L148.415 49.964L145.727 43.448H146.651L148.883 49.04L151.043 43.448H151.907ZM155.914 50.096C155.298 50.096 154.742 49.96 154.246 49.688C153.758 49.408 153.37 49.016 153.082 48.512C152.802 48 152.662 47.404 152.662 46.724C152.662 46.044 152.806 45.452 153.094 44.948C153.382 44.436 153.774 44.044 154.27 43.772C154.766 43.492 155.322 43.352 155.938 43.352C156.554 43.352 157.11 43.492 157.606 43.772C158.11 44.044 158.502 44.436 158.782 44.948C159.07 45.452 159.214 46.044 159.214 46.724C159.214 47.396 159.07 47.988 158.782 48.5C158.494 49.012 158.098 49.408 157.594 49.688C157.09 49.96 156.53 50.096 155.914 50.096ZM155.914 49.364C156.346 49.364 156.746 49.268 157.114 49.076C157.482 48.876 157.778 48.58 158.002 48.188C158.234 47.788 158.35 47.3 158.35 46.724C158.35 46.148 158.238 45.664 158.014 45.272C157.79 44.872 157.494 44.576 157.126 44.384C156.758 44.184 156.358 44.084 155.926 44.084C155.494 44.084 155.094 44.184 154.726 44.384C154.358 44.576 154.062 44.872 153.838 45.272C153.622 45.664 153.514 46.148 153.514 46.724C153.514 47.3 153.622 47.788 153.838 48.188C154.062 48.58 154.354 48.876 154.714 49.076C155.082 49.268 155.482 49.364 155.914 49.364ZM166.421 43.448V50H165.581V48.848C165.389 49.256 165.093 49.568 164.693 49.784C164.293 50 163.845 50.108 163.349 50.108C162.565 50.108 161.925 49.868 161.429 49.388C160.933 48.9 160.685 48.196 160.685 47.276V43.448H161.513V47.18C161.513 47.892 161.689 48.436 162.041 48.812C162.401 49.188 162.889 49.376 163.505 49.376C164.137 49.376 164.641 49.176 165.017 48.776C165.393 48.376 165.581 47.788 165.581 47.012V43.448H166.421ZM172.052 42.212C171.884 42.212 171.74 42.152 171.62 42.032C171.5 41.912 171.44 41.764 171.44 41.588C171.44 41.412 171.5 41.268 171.62 41.156C171.74 41.036 171.884 40.976 172.052 40.976C172.22 40.976 172.364 41.036 172.484 41.156C172.604 41.268 172.664 41.412 172.664 41.588C172.664 41.764 172.604 41.912 172.484 42.032C172.364 42.152 172.22 42.212 172.052 42.212ZM172.472 43.448V50H171.632V43.448H172.472ZM177.446 43.328C178.23 43.328 178.87 43.572 179.366 44.06C179.862 44.54 180.11 45.24 180.11 46.16V50H179.282V46.256C179.282 45.544 179.102 45 178.742 44.624C178.39 44.248 177.906 44.06 177.29 44.06C176.658 44.06 176.154 44.26 175.778 44.66C175.402 45.06 175.214 45.648 175.214 46.424V50H174.374V43.448H175.214V44.564C175.422 44.164 175.722 43.86 176.114 43.652C176.506 43.436 176.95 43.328 177.446 43.328ZM183.06 44.156V48.224C183.06 48.624 183.136 48.9 183.288 49.052C183.44 49.204 183.708 49.28 184.092 49.28H184.86V50H183.96C183.368 50 182.928 49.864 182.64 49.592C182.352 49.312 182.208 48.856 182.208 48.224V44.156H181.296V43.448H182.208V41.804H183.06V43.448H184.86V44.156H183.06ZM189.113 50.096C188.497 50.096 187.941 49.96 187.445 49.688C186.957 49.408 186.569 49.016 186.281 48.512C186.001 48 185.861 47.404 185.861 46.724C185.861 46.044 186.005 45.452 186.293 44.948C186.581 44.436 186.973 44.044 187.469 43.772C187.965 43.492 188.521 43.352 189.137 43.352C189.753 43.352 190.309 43.492 190.805 43.772C191.309 44.044 191.701 44.436 191.981 44.948C192.269 45.452 192.413 46.044 192.413 46.724C192.413 47.396 192.269 47.988 191.981 48.5C191.693 49.012 191.297 49.408 190.793 49.688C190.289 49.96 189.729 50.096 189.113 50.096ZM189.113 49.364C189.545 49.364 189.945 49.268 190.313 49.076C190.681 48.876 190.977 48.58 191.201 48.188C191.433 47.788 191.549 47.3 191.549 46.724C191.549 46.148 191.437 45.664 191.213 45.272C190.989 44.872 190.693 44.576 190.325 44.384C189.957 44.184 189.557 44.084 189.125 44.084C188.693 44.084 188.293 44.184 187.925 44.384C187.557 44.576 187.261 44.872 187.037 45.272C186.821 45.664 186.713 46.148 186.713 46.724C186.713 47.3 186.821 47.788 187.037 48.188C187.261 48.58 187.553 48.876 187.913 49.076C188.281 49.268 188.681 49.364 189.113 49.364ZM198.329 44.156V48.224C198.329 48.624 198.405 48.9 198.557 49.052C198.709 49.204 198.977 49.28 199.361 49.28H200.129V50H199.229C198.637 50 198.197 49.864 197.909 49.592C197.621 49.312 197.477 48.856 197.477 48.224V44.156H196.565V43.448H197.477V41.804H198.329V43.448H200.129V44.156H198.329ZM204.635 43.328C205.131 43.328 205.575 43.432 205.967 43.64C206.367 43.848 206.679 44.168 206.903 44.6C207.135 45.024 207.251 45.544 207.251 46.16V50H206.423V46.256C206.423 45.544 206.243 45 205.883 44.624C205.531 44.248 205.047 44.06 204.431 44.06C203.799 44.06 203.295 44.26 202.919 44.66C202.543 45.06 202.355 45.648 202.355 46.424V50H201.515V41.12H202.355V44.564C202.563 44.172 202.867 43.868 203.267 43.652C203.675 43.436 204.131 43.328 204.635 43.328ZM215.036 46.388C215.036 46.676 215.028 46.896 215.012 47.048H209.576C209.6 47.544 209.72 47.968 209.936 48.32C210.152 48.672 210.436 48.94 210.788 49.124C211.14 49.3 211.524 49.388 211.94 49.388C212.484 49.388 212.94 49.256 213.308 48.992C213.684 48.728 213.932 48.372 214.052 47.924H214.94C214.78 48.564 214.436 49.088 213.908 49.496C213.388 49.896 212.732 50.096 211.94 50.096C211.324 50.096 210.772 49.96 210.284 49.688C209.796 49.408 209.412 49.016 209.132 48.512C208.86 48 208.724 47.404 208.724 46.724C208.724 46.044 208.86 45.448 209.132 44.936C209.404 44.424 209.784 44.032 210.272 43.76C210.76 43.488 211.316 43.352 211.94 43.352C212.564 43.352 213.108 43.488 213.572 43.76C214.044 44.032 214.404 44.4 214.652 44.864C214.908 45.32 215.036 45.828 215.036 46.388ZM214.184 46.364C214.192 45.876 214.092 45.46 213.884 45.116C213.684 44.772 213.408 44.512 213.056 44.336C212.704 44.16 212.32 44.072 211.904 44.072C211.28 44.072 210.748 44.272 210.308 44.672C209.868 45.072 209.624 45.636 209.576 46.364H214.184ZM222.446 44.156H220.922V50H220.082V44.156H219.17V43.448H220.082V42.992C220.082 42.28 220.262 41.756 220.622 41.42C220.99 41.084 221.582 40.916 222.398 40.916V41.636C221.854 41.636 221.47 41.74 221.246 41.948C221.03 42.156 220.922 42.504 220.922 42.992V43.448H222.446V44.156ZM229.445 43.448V50H228.605V48.848C228.413 49.256 228.117 49.568 227.717 49.784C227.317 50 226.869 50.108 226.373 50.108C225.589 50.108 224.949 49.868 224.453 49.388C223.957 48.9 223.709 48.196 223.709 47.276V43.448H224.537V47.18C224.537 47.892 224.713 48.436 225.065 48.812C225.425 49.188 225.913 49.376 226.529 49.376C227.161 49.376 227.665 49.176 228.041 48.776C228.417 48.376 228.605 47.788 228.605 47.012V43.448H229.445ZM232.454 44.156V48.224C232.454 48.624 232.53 48.9 232.682 49.052C232.834 49.204 233.102 49.28 233.486 49.28H234.254V50H233.354C232.762 50 232.322 49.864 232.034 49.592C231.746 49.312 231.602 48.856 231.602 48.224V44.156H230.69V43.448H231.602V41.804H232.454V43.448H234.254V44.156H232.454ZM241.316 43.448V50H240.476V48.848C240.284 49.256 239.988 49.568 239.588 49.784C239.188 50 238.74 50.108 238.244 50.108C237.46 50.108 236.82 49.868 236.324 49.388C235.828 48.9 235.58 48.196 235.58 47.276V43.448H236.408V47.18C236.408 47.892 236.584 48.436 236.936 48.812C237.296 49.188 237.784 49.376 238.4 49.376C239.032 49.376 239.536 49.176 239.912 48.776C240.288 48.376 240.476 47.788 240.476 47.012V43.448H241.316ZM244.073 44.612C244.257 44.204 244.537 43.888 244.913 43.664C245.297 43.44 245.765 43.328 246.317 43.328V44.204H246.089C245.481 44.204 244.993 44.368 244.625 44.696C244.257 45.024 244.073 45.572 244.073 46.34V50H243.233V43.448H244.073V44.612ZM253.509 46.388C253.509 46.676 253.501 46.896 253.485 47.048H248.049C248.073 47.544 248.193 47.968 248.409 48.32C248.625 48.672 248.909 48.94 249.261 49.124C249.613 49.3 249.997 49.388 250.413 49.388C250.957 49.388 251.413 49.256 251.781 48.992C252.157 48.728 252.405 48.372 252.525 47.924H253.413C253.253 48.564 252.909 49.088 252.381 49.496C251.861 49.896 251.205 50.096 250.413 50.096C249.797 50.096 249.245 49.96 248.757 49.688C248.269 49.408 247.885 49.016 247.605 48.512C247.333 48 247.197 47.404 247.197 46.724C247.197 46.044 247.333 45.448 247.605 44.936C247.877 44.424 248.257 44.032 248.745 43.76C249.233 43.488 249.789 43.352 250.413 43.352C251.037 43.352 251.581 43.488 252.045 43.76C252.517 44.032 252.877 44.4 253.125 44.864C253.381 45.32 253.509 45.828 253.509 46.388ZM252.657 46.364C252.665 45.876 252.565 45.46 252.357 45.116C252.157 44.772 251.881 44.512 251.529 44.336C251.177 44.16 250.793 44.072 250.377 44.072C249.753 44.072 249.221 44.272 248.781 44.672C248.341 45.072 248.097 45.636 248.049 46.364H252.657Z" fill="#928F8F"/>
</svg>
